<svg xmlns="http://www.w3.org/2000/svg" version="1.1" xmlns:xlink="http://www.w3.org/1999/xlink" xmlns:svgjs="http://svgjs.dev/svgjs" viewBox="0 0 800 800"><defs><symbol id="bbburst-shape-1" viewBox="0 0 194 167"><path d="m97 0 96.129 166.5H.871L97 0Z"></path></symbol><symbol id="bbburst-shape-2" viewBox="0 0 126 115"><path d="m63 0 62.77 43.877-23.976 70.996H24.206L.23 43.877 63 0Z"></path></symbol><symbol id="bbburst-shape-3" viewBox="0 0 131 127"><path d="m66 0 66 63.5L66 127 0 63.5 66 0Z"></path></symbol><symbol id="bbburst-shape-4" viewBox="0 0 149 143"><path d="M71.647 2.781c.898-2.764 4.808-2.764 5.706 0l15.445 47.534a3 3 0 0 0 2.853 2.073h49.98c2.906 0 4.115 3.719 1.764 5.427L106.96 87.193a2.999 2.999 0 0 0-1.09 3.354l15.445 47.534c.898 2.764-2.266 5.062-4.617 3.354l-40.435-29.378a3 3 0 0 0-3.526 0l-40.435 29.378c-2.351 1.708-5.515-.59-4.617-3.354L43.13 90.547a3 3 0 0 0-1.09-3.354L1.605 57.815c-2.35-1.708-1.142-5.427 1.764-5.427h49.98a3 3 0 0 0 2.853-2.073L71.647 2.781Z"></path></symbol><symbol id="bbburst-shape-5" viewBox="0 0 145 145"><circle cx="72.5" cy="72.5" r="72.5"></circle></symbol><symbol id="bbburst-shape-8" viewBox="0 0 87 168"><path d="m12 12 31.2546 18.0749c16.4102 9.4902 20.014 31.6325 7.4603 45.8369L36.3296 92.1884c-12.5684 14.2206-8.9394 36.3916 7.5068 45.8636L75 156" stroke-width="14" stroke-linecap="round" stroke-linejoin="round"></path></symbol><symbol id="bbburst-shape-9" viewBox="0 0 182 172"><path d="M13.5809 69.845 91 13.5967l77.419 56.2483-29.571 91.012H43.1524L13.5809 69.845Z" stroke-width="22"></path></symbol><symbol id="bbburst-shape-10" viewBox="0 0 145 145"><circle cx="72.5" cy="72.5" r="61.5" fill="none" stroke-width="22"></circle></symbol><symbol id="bbburst-shape-11" viewBox="0 0 194 167"><path d="M10.398 161 97 11l86.603 150H10.397Z" stroke-width="11"></path></symbol><symbol id="bbburst-shape-13" viewBox="0 0 159 159"><path stroke-width="22" d="M11 11h137v137H11z"></path></symbol><symbol id="bbburst-shape-14" viewBox="0 0 185 109"><path d="M168 16.5C168 58.1975 134.197 92 92.5 92 50.8025 92 17 58.1975 17 16.5" stroke-width="33" stroke-linecap="round"></path></symbol></defs><use xlink:href="#bbburst-shape-3" width="18.245216478212" opacity="0.6454597457118489" transform="matrix(0.8762711898333522,0.48181822492309406,-0.48181822492309406,0.8762711898333522,715.553825231427,136.2988067884773)" fill="#1976d2"></use><use xlink:href="#bbburst-shape-2" width="26.496755075677708" opacity="0.5317182700074734" transform="matrix(0.827598090421193,0.5613211208668304,-0.5613211208668304,0.827598090421193,613.3361258881845,272.26186967332103)" fill="#1565c0"></use><use xlink:href="#bbburst-shape-13" width="36.48804916497156" opacity="0.4622817589238968" transform="matrix(0.7719058344021912,-0.6357368817489332,0.6357368817489332,0.7719058344021912,-67.80939682027451,-34.196476844092444)" fill="none" stroke="#1565c0"></use><use xlink:href="#bbburst-shape-9" width="22.48754225118661" opacity="0.6661282947177005" transform="matrix(0.9357419007874747,-0.3526855470679851,0.3526855470679851,0.9357419007874747,192.8634630701742,169.14733168633416)" fill="none" stroke="#1565c0"></use><use xlink:href="#bbburst-shape-8" width="32.30378072769299" opacity="0.14384629634426382" transform="matrix(0.9295994417181065,-0.3685714014372042,0.3685714014372042,0.9295994417181065,-130.5048242223586,147.96890740724797)" fill="none" stroke="#1565c0"></use><use xlink:href="#bbburst-shape-9" width="35.108103996697494" opacity="0.5962286995098555" transform="matrix(0.993003867630647,-0.11808183124671055,0.11808183124671055,0.993003867630647,268.9054741809625,-164.49245987347246)" fill="none" stroke="#1565c0"></use><use xlink:href="#bbburst-shape-5" width="22.369627048680155" opacity="0.651265344543828" transform="matrix(0.985211185673056,0.17134444731210638,-0.17134444731210638,0.985211185673056,507.4896417143894,152.76091389722632)" fill="#1565c0"></use><use xlink:href="#bbburst-shape-9" width="20.99205243833068" opacity="0.6532856442249357" transform="matrix(0.9769526076097269,0.21345632453632069,-0.21345632453632069,0.9769526076097269,471.0457355589725,162.80750258090455)" fill="none" stroke="#1565c0"></use><use xlink:href="#bbburst-shape-11" width="30.54809342956354" opacity="0.35607699532968073" transform="matrix(0.9976393960357216,-0.06867048476223732,0.06867048476223732,0.9976393960357216,556.9316697544242,-208.3945921101506)" fill="none" stroke="#1565c0"></use><use xlink:href="#bbburst-shape-1" width="34.51199373814948" opacity="0.44038009220403873" transform="matrix(0.9110228254074383,0.41235592827877254,-0.41235592827877254,0.9110228254074383,297.5318285960981,37.41713493649445)" fill="#1976d2"></use><use xlink:href="#bbburst-shape-1" width="25.514569736354154" opacity="0.17881332911388748" transform="matrix(0.984892327559435,-0.17316784665335147,0.17316784665335147,0.984892327559435,328.4742717636277,377.67502945561614)" fill="#1565c0"></use><use xlink:href="#bbburst-shape-8" width="19.648933358286392" opacity="0.7805784592581243" transform="matrix(0.9766875842744062,0.21466569992484788,-0.21466569992484788,0.9766875842744062,377.5519758687111,5.189050897923266)" fill="none" stroke="#1976d2"></use><use xlink:href="#bbburst-shape-9" width="36.60552170996354" opacity="0.13285865989497436" transform="matrix(0.9243486035301021,-0.3815490258825858,0.3815490258825858,0.9243486035301021,-126.21046827262657,-121.47185786023775)" fill="none" stroke="#1565c0"></use><use xlink:href="#bbburst-shape-9" width="11.889289704340197" opacity="0.8054568230903374" transform="matrix(0.9979917697009257,-0.06334372588673919,0.06334372588673919,0.9979917697009257,442.1746558544589,48.735288821108895)" fill="none" stroke="#1976d2"></use><use xlink:href="#bbburst-shape-13" width="27.35339811028168" opacity="0.5312583652673176" transform="matrix(0.8356376984396968,0.5492810181923332,-0.5492810181923332,0.8356376984396968,757.8185278552883,-90.53691236384631)" fill="none" stroke="#1565c0"></use><use xlink:href="#bbburst-shape-2" width="40.408916845134435" opacity="0.1065327416141355" transform="matrix(0.84691662423449,-0.5317257108653441,0.5317257108653441,0.84691662423449,-12.314726259992995,-286.24844215694486)" fill="#1976d2"></use><use xlink:href="#bbburst-shape-2" width="13.735513055136153" opacity="0.8535139850590738" transform="matrix(0.9060171528404167,0.4232409700855353,-0.4232409700855353,0.9060171528404167,623.8682078660474,9.217332826245979)" fill="#1976d2"></use><use xlink:href="#bbburst-shape-10" width="28.846060518455065" opacity="0.43074631195524093" transform="matrix(0.8141068235222442,-0.5807151452257134,0.5807151452257134,0.8141068235222442,-35.59828028378911,252.79438450212564)" fill="none" stroke="#1976d2"></use><use xlink:href="#bbburst-shape-10" width="35.02404008091579" opacity="0.42504501456997057" transform="matrix(0.8386328991063743,-0.5446970355495226,0.5446970355495226,0.8386328991063743,-70.8970726336936,174.77758160719918)" fill="none" stroke="#1976d2"></use><use xlink:href="#bbburst-shape-5" width="30.969834764873024" opacity="0.2677452809158031" transform="matrix(0.991244548891864,0.13203879843502447,-0.13203879843502447,0.991244548891864,717.4762385370403,175.1649800657754)" fill="#1976d2"></use><use xlink:href="#bbburst-shape-1" width="15.210774082938562" opacity="0.8193938450920345" transform="matrix(0.8676337118878312,0.49720392395449153,-0.49720392395449153,0.8676337118878312,673.2450588692762,56.168443303343906)" fill="#1565c0"></use><use xlink:href="#bbburst-shape-4" width="42.95822934751709" opacity="0.28191184732275665" transform="matrix(0.874966265255253,-0.4841838851771858,0.4841838851771858,0.874966265255253,476.58873977146897,-84.04087104187172)" fill="#1976d2"></use><use xlink:href="#bbburst-shape-13" width="14.120424855918946" opacity="0.7589881230272257" transform="matrix(0.7682985322311652,0.6400916851291206,-0.6400916851291206,0.7682985322311652,681.1616961718456,192.225325399062)" fill="none" stroke="#1565c0"></use><use xlink:href="#bbburst-shape-8" width="46.909388831014766" opacity="0.2064476493549806" transform="matrix(0.8654621174855888,-0.5009743737930723,0.5009743737930723,0.8654621174855888,119.26595544889253,-286.4487916168771)" fill="none" stroke="#1565c0"></use><use xlink:href="#bbburst-shape-8" width="32.948440079247185" opacity="0.13320936467589828" transform="matrix(0.7595644593647911,-0.6504320349351441,0.6504320349351441,0.7595644593647911,-27.974268916133468,464.7010760502291)" fill="none" stroke="#1565c0"></use><use xlink:href="#bbburst-shape-8" width="44.99485575177839" opacity="0.32803121432241245" transform="matrix(0.8004020993995526,0.5994634928640682,-0.5994634928640682,0.8004020993995526,469.846044370042,327.7984083943259)" fill="none" stroke="#1565c0"></use><use xlink:href="#bbburst-shape-9" width="19.83938366533796" opacity="0.6734117433903394" transform="matrix(0.9622490547306141,0.2721704551747666,-0.2721704551747666,0.9622490547306141,352.5214136763357,18.37467273003392)" fill="none" stroke="#1976d2"></use><use xlink:href="#bbburst-shape-10" width="13.346131745438035" opacity="0.8786147518557526" transform="matrix(0.8934814359529205,0.4491001264835129,-0.4491001264835129,0.8934814359529205,611.41755788798,79.1000836405774)" fill="none" stroke="#1976d2"></use><use xlink:href="#bbburst-shape-5" width="22.743478957155393" opacity="0.753657388688207" transform="matrix(0.9146401049778002,-0.4042690667936376,0.4042690667936376,0.9146401049778002,129.15364700484878,89.13486599975329)" fill="#1565c0"></use><use xlink:href="#bbburst-shape-2" width="28.66088771436163" opacity="0.6366146055325448" transform="matrix(0.9112802319045946,-0.4117867639202458,0.4117867639202458,0.9112802319045946,69.57180587916002,-17.204310690682746)" fill="#1976d2"></use><use xlink:href="#bbburst-shape-9" width="30.126364977201938" opacity="0.3692418532689331" transform="matrix(0.9999805025604016,-0.006244557554119513,0.006244557554119513,0.9999805025604016,406.53454886861647,-282.9176986343711)" fill="none" stroke="#1565c0"></use><use xlink:href="#bbburst-shape-10" width="32.37583376626996" opacity="0.15483411517381662" transform="matrix(0.9514612682794373,0.3077685087270699,-0.3077685087270699,0.9514612682794373,634.5088615361376,372.9967225036723)" fill="none" stroke="#1565c0"></use><use xlink:href="#bbburst-shape-8" width="33.8306177793544" opacity="0.17494550790750596" transform="matrix(0.9042119460217188,-0.4270840159402084,0.4270840159402084,0.9042119460217188,-47.395393691001146,-218.2491604225811)" fill="none" stroke="#1976d2"></use><use xlink:href="#bbburst-shape-2" width="17.795391535861825" opacity="0.7212864286342524" transform="matrix(0.9028068644165075,0.4300462365402515,-0.4300462365402515,0.9028068644165075,487.3294646797309,-64.21283789684162)" fill="#1976d2"></use><use xlink:href="#bbburst-shape-14" width="31.887080812771927" opacity="0.2863435308961486" transform="matrix(0.9505699309439067,0.31051055760681695,-0.31051055760681695,0.9505699309439067,343.5589997784132,-260.36835787940925)" fill="none" stroke="#1976d2"></use><use xlink:href="#bbburst-shape-1" width="21.97920841987871" opacity="0.7504218297047158" transform="matrix(0.8595907614863771,-0.5109830944045705,0.5109830944045705,0.8595907614863771,85.93128685658291,11.159300661917996)" fill="#1976d2"></use><use xlink:href="#bbburst-shape-3" width="24.254812717904727" opacity="0.6783802719011888" transform="matrix(0.7213219796797805,-0.692599885670538,0.692599885670538,0.7213219796797805,205.05316590155542,7.319284845712161)" fill="#1976d2"></use><use xlink:href="#bbburst-shape-1" width="35.528121071040815" opacity="0.25679185327689846" transform="matrix(0.7462333330343289,-0.6656844693009416,0.6656844693009416,0.7462333330343289,260.7325824499766,-190.25793589489706)" fill="#1565c0"></use><use xlink:href="#bbburst-shape-13" width="18.838270167997315" opacity="0.6803246579705501" transform="matrix(0.88879296147384,-0.4583089259817673,0.4583089259817673,0.88879296147384,110.48657364418995,154.27741528900737)" fill="none" stroke="#1976d2"></use><use xlink:href="#bbburst-shape-14" width="32.011081988288836" opacity="0.44625758259971315" transform="matrix(0.9948286487946448,-0.10156751221439456,0.10156751221439456,0.9948286487946448,193.46095127327558,-195.24673045212077)" fill="none" stroke="#1976d2"></use><use xlink:href="#bbburst-shape-13" width="42.107402218773046" opacity="0.2168948174201757" transform="matrix(0.9253683752368617,0.3790690835606233,-0.3790690835606233,0.9253683752368617,457.80817738944,366.3393829399406)" fill="none" stroke="#1565c0"></use><use xlink:href="#bbburst-shape-2" width="25.61823441340385" opacity="0.18052168422507253" transform="matrix(0.9124418088791072,-0.4092064826092357,0.4092064826092357,0.9124418088791072,587.9373884899185,103.5164260319234)" fill="#1976d2"></use><use xlink:href="#bbburst-shape-9" width="14.56809531492257" opacity="0.7533783771454706" transform="matrix(0.9751737230555064,0.22144121084852839,-0.22144121084852839,0.9751737230555064,587.1799196890122,-25.64862423000352)" fill="none" stroke="#1976d2"></use><use xlink:href="#bbburst-shape-10" width="38.825631847860066" opacity="0.4693754723574146" transform="matrix(0.8499281285900988,-0.5268986394282418,0.5268986394282418,0.8499281285900988,377.3832657109805,193.29370719932695)" fill="none" stroke="#1976d2"></use><use xlink:href="#bbburst-shape-5" width="45.548898462274266" opacity="-0.09106346472923965" transform="matrix(0.8922691352088038,-0.45150392064048955,0.45150392064048955,0.8922691352088038,-147.46640657324525,401.17859493250336)" fill="#1565c0"></use><use xlink:href="#bbburst-shape-2" width="31.82059222172896" opacity="0.4780987783251204" transform="matrix(0.9220220536910473,-0.38713735612485584,0.38713735612485584,0.9220220536910473,461.6039949355868,79.07366118210626)" fill="#1976d2"></use><use xlink:href="#bbburst-shape-1" width="39.468451963676245" opacity="0.07102994394446038" transform="matrix(0.9039972458541995,-0.4275382783892244,0.4275382783892244,0.9039972458541995,426.3645587956608,-311.5072218371545)" fill="#1565c0"></use><use xlink:href="#bbburst-shape-3" width="26.67022585890046" opacity="0.5136086671435012" transform="matrix(0.9887131989937495,0.14982059316244267,-0.14982059316244267,0.9887131989937495,371.4238647045919,208.046794814723)" fill="#1565c0"></use><use xlink:href="#bbburst-shape-8" width="29.052440150260423" opacity="0.6315078564186533" transform="matrix(0.917610413821781,0.39748097872202615,-0.39748097872202615,0.917610413821781,693.3458942585489,-48.22707533098321)" fill="none" stroke="#1565c0"></use><use xlink:href="#bbburst-shape-13" width="18.434962392531638" opacity="0.6062567939693744" transform="matrix(0.83731445941737,0.5467215891572212,-0.5467215891572212,0.83731445941737,780.0859475409341,112.89648205139412)" fill="none" stroke="#1976d2"></use><use xlink:href="#bbburst-shape-13" width="29.89808352170573" opacity="0.3220246556989268" transform="matrix(0.967690942955746,-0.25213932442484865,0.25213932442484865,0.967690942955746,576.2969599134158,106.34633643720076)" fill="none" stroke="#1565c0"></use><use xlink:href="#bbburst-shape-3" width="16.201775479733076" opacity="0.7684026079525226" transform="matrix(0.8466746821285313,-0.5321108743885532,0.5321108743885532,0.8466746821285313,259.13365273177124,-2.429694597302557)" fill="#1976d2"></use><use xlink:href="#bbburst-shape-13" width="32.76654878072275" opacity="0.40921932288164153" transform="matrix(0.8100269085512044,-0.5863927075117653,0.5863927075117653,0.8100269085512044,80.04624746794912,-170.2841583149834)" fill="none" stroke="#1565c0"></use><use xlink:href="#bbburst-shape-4" width="14.965664101919275" opacity="0.7658134083337746" transform="matrix(0.9932424877104202,-0.11605757453443408,0.11605757453443408,0.9932424877104202,333.5578290359071,108.21434184429313)" fill="#1976d2"></use><use xlink:href="#bbburst-shape-5" width="28.020047669655412" opacity="0.540251467704557" transform="matrix(0.8771431203556924,0.480229056193687,-0.480229056193687,0.8771431203556924,583.5792983852145,-164.4376268785722)" fill="#1565c0"></use><use xlink:href="#bbburst-shape-2" width="30.113802268289643" opacity="0.5039597289428007" transform="matrix(0.7511441507444216,0.6601382164383771,-0.6601382164383771,0.7511441507444216,794.5276233701715,262.01272553433085)" fill="#1565c0"></use><use xlink:href="#bbburst-shape-4" width="27.398192130812152" opacity="0.5977659700217838" transform="matrix(0.9692951890860472,-0.2459000537101283,0.2459000537101283,0.9692951890860472,132.73614294939836,108.09639294652072)" fill="#1565c0"></use><use xlink:href="#bbburst-shape-14" width="35.49493484687514" opacity="0.16089990303372892" transform="matrix(0.9185569486078812,-0.39528866941031626,0.39528866941031626,0.9185569486078812,494.01511274803653,-225.94220112847523)" fill="none" stroke="#1976d2"></use><use xlink:href="#bbburst-shape-11" width="37.63173528343884" opacity="0.050042258865137024" transform="matrix(0.7072701477588147,-0.7069433768621249,0.7069433768621249,0.7072701477588147,339.1617030119141,486.7542720130655)" fill="none" stroke="#1565c0"></use><use xlink:href="#bbburst-shape-9" width="37.95684941609319" opacity="-0.06836511849274673" transform="matrix(0.9899567332436991,-0.1413706698911178,0.1413706698911178,0.9899567332436991,6.297916949523227,-353.8312610451991)" fill="none" stroke="#1565c0"></use><use xlink:href="#bbburst-shape-9" width="39.487224316935716" opacity="-0.00449558663977867" transform="matrix(0.9712275340784293,-0.2381534737263629,0.2381534737263629,0.9712275340784293,-73.66536669455428,-258.50201998147423)" fill="none" stroke="#1565c0"></use><use xlink:href="#bbburst-shape-11" width="21.104844186237663" opacity="0.8415283509182993" transform="matrix(0.9998515586905541,-0.01722964259842362,0.01722964259842362,0.9998515586905541,329.3762801066114,-47.5461163914573)" fill="none" stroke="#1976d2"></use><use xlink:href="#bbburst-shape-11" width="31.258687847948373" opacity="0.28205601256238644" transform="matrix(0.9846937111777384,-0.1742937037503439,0.1742937037503439,0.9846937111777384,-5.064826823593265,53.722693123566785)" fill="none" stroke="#1976d2"></use><use xlink:href="#bbburst-shape-10" width="28.385986012950745" opacity="0.5386073111146112" transform="matrix(0.9383259864073525,-0.3457518521030204,0.3457518521030204,0.9383259864073525,125.34245393147992,196.81985630941483)" fill="none" stroke="#1976d2"></use><use xlink:href="#bbburst-shape-9" width="38.61101296184662" opacity="0.3288034053772023" transform="matrix(0.9871992101168509,0.15949206734087373,-0.15949206734087373,0.9871992101168509,152.25775252321927,-73.4352922409297)" fill="none" stroke="#1976d2"></use><use xlink:href="#bbburst-shape-3" width="16.766518163181214" opacity="0.8524220897875606" transform="matrix(0.939474037401024,0.34262010018301514,-0.34262010018301514,0.939474037401024,522.0044436216056,-44.71242289433894)" fill="#1565c0"></use><use xlink:href="#bbburst-shape-10" width="46.926639695197636" opacity="0.23155929364733008" transform="matrix(0.9520182820694463,-0.30604115835217355,0.30604115835217355,0.9520182820694463,6.549537408009769,266.6368705373926)" fill="none" stroke="#1565c0"></use><use xlink:href="#bbburst-shape-2" width="15.95400467904031" opacity="0.914990698594592" transform="matrix(0.9944428986090841,-0.10527735466833761,0.10527735466833761,0.9944428986090841,388.03812383016265,6.707731082554972)" fill="#1976d2"></use><use xlink:href="#bbburst-shape-5" width="16.33749982514748" opacity="0.7616884553135522" transform="matrix(0.7581094625054619,-0.6521273210498697,0.6521273210498697,0.7581094625054619,199.8435829899762,185.90777602575838)" fill="#1565c0"></use><use xlink:href="#bbburst-shape-5" width="38.47301855585309" opacity="0.06438917909466191" transform="matrix(0.966809584696607,-0.25549799791539324,0.25549799791539324,0.966809584696607,33.04096187408541,359.7555503400819)" fill="#1976d2"></use><use xlink:href="#bbburst-shape-11" width="27.62186746794309" opacity="0.3908190273410287" transform="matrix(0.8366557586733354,-0.5477290767147072,0.5477290767147072,0.8366557586733354,121.83207078528972,342.61985738667687)" fill="none" stroke="#1976d2"></use><use xlink:href="#bbburst-shape-5" width="30.73552165430574" opacity="0.6041818056808445" transform="matrix(0.9970414783431689,0.07686540485334302,-0.07686540485334302,0.9970414783431689,286.4588529991381,-122.85593313770846)" fill="#1565c0"></use><use xlink:href="#bbburst-shape-3" width="38.489081487092164" opacity="0.08050241777605893" transform="matrix(0.9955320914429004,-0.0944238047704314,0.0944238047704314,0.9955320914429004,702.8107039641444,207.8034030692756)" fill="#1565c0"></use><use xlink:href="#bbburst-shape-10" width="16.761545786927332" opacity="0.7548381938110922" transform="matrix(0.9962068143812335,0.08701714187672799,-0.08701714187672799,0.9962068143812335,397.4487043964522,-105.65254050748177)" fill="none" stroke="#1976d2"></use><use xlink:href="#bbburst-shape-10" width="17.360317195550778" opacity="0.8598244051195334" transform="matrix(0.8745082797946125,-0.48501058603979724,0.48501058603979724,0.8745082797946125,135.69107160644867,61.184404169152685)" fill="none" stroke="#1976d2"></use><use xlink:href="#bbburst-shape-13" width="44.92671766602833" opacity="-0.07720934167278815" transform="matrix(0.9370932788775349,0.3490790550613866,-0.3490790550613866,0.9370932788775349,862.6239551278163,-324.16326253743546)" fill="none" stroke="#1565c0"></use><use xlink:href="#bbburst-shape-1" width="29.628142205993857" opacity="0.2510132216837486" transform="matrix(0.9413936077617397,-0.3373100580553977,0.3373100580553977,0.9413936077617397,-46.320946473990844,186.94905405232333)" fill="#1976d2"></use><use xlink:href="#bbburst-shape-10" width="18.87082452238151" opacity="0.6404678535492524" transform="matrix(0.9088942102908178,-0.41702675513668264,0.41702675513668264,0.9088942102908178,324.1258762251263,167.94327658785932)" fill="none" stroke="#1976d2"></use><use xlink:href="#bbburst-shape-3" width="31.269118620309214" opacity="0.3012945819163678" transform="matrix(0.8229129402588033,-0.5681674865342183,0.5681674865342183,0.8229129402588033,201.5237216341209,391.41825145302215)" fill="#1976d2"></use><use xlink:href="#bbburst-shape-1" width="19.24816016840692" opacity="0.42690222571994496" transform="matrix(0.897799170107494,-0.44040509778418213,0.44040509778418213,0.897799170107494,269.8843750092857,297.17255593188924)" fill="#1976d2"></use><use xlink:href="#bbburst-shape-2" width="14.213964919416796" opacity="0.8535825504227517" transform="matrix(0.939030225785034,0.34383460422433937,-0.34383460422433937,0.939030225785034,567.3911735202437,-32.88068984788413)" fill="#1976d2"></use><use xlink:href="#bbburst-shape-5" width="29.220642381889515" opacity="0.45766280118619906" transform="matrix(0.805682643703724,-0.5923474298370662,0.5923474298370662,0.805682643703724,372.53310651202185,-16.636325176086586)" fill="#1976d2"></use><use xlink:href="#bbburst-shape-5" width="17.75225140021143" opacity="0.7927725731104902" transform="matrix(0.9656274196246887,-0.25993015690559146,0.25993015690559146,0.9656274196246887,237.77515389623102,94.97214798674128)" fill="#1976d2"></use><use xlink:href="#bbburst-shape-2" width="14.600146633373875" opacity="0.7711395330138109" transform="matrix(0.988842630780917,-0.14896392701011527,0.14896392701011527,0.988842630780917,366.48954882491273,-91.89984733299286)" fill="#1976d2"></use><use xlink:href="#bbburst-shape-2" width="13.729995560155434" opacity="0.9258646946055522" transform="matrix(0.9953448662882515,0.09637736847218234,-0.09637736847218234,0.9953448662882515,449.31339803192475,-27.13565171753703)" fill="#1565c0"></use><use xlink:href="#bbburst-shape-13" width="39.58013105478109" opacity="0.18493233217828975" transform="matrix(0.9820800659521979,0.18846417181874803,-0.18846417181874803,0.9820800659521979,90.67519476654107,-29.75856152388633)" fill="none" stroke="#1976d2"></use><use xlink:href="#bbburst-shape-4" width="50.91189659147638" opacity="0.05151747244157445" transform="matrix(0.8524184180169809,0.5228602496130563,-0.5228602496130563,0.8524184180169809,235.01133056849608,286.55342921586663)" fill="#1565c0"></use><use xlink:href="#bbburst-shape-10" width="36.81924064666167" opacity="0.4459299265586838" transform="matrix(0.9605291879701237,0.27817922111015936,-0.27817922111015936,0.9605291879701237,596.40752888508,-216.47708862285353)" fill="none" stroke="#1976d2"></use><use xlink:href="#bbburst-shape-4" width="36.80957973969582" opacity="0.3105042344014345" transform="matrix(0.8654474367229155,0.5009997348000648,-0.5009997348000648,0.8654474367229155,730.3516356205766,318.4602387023257)" fill="#1976d2"></use><use xlink:href="#bbburst-shape-3" width="33.949449237649766" opacity="-0.08219745424595093" transform="matrix(0.7646201195451497,-0.6444812431613203,0.6444812431613203,0.7646201195451497,479.3315510987066,443.5781708367738)" fill="#1976d2"></use><use xlink:href="#bbburst-shape-5" width="39.95938826997512" opacity="0.07865358664051703" transform="matrix(0.8537234143993766,-0.520726734195845,0.520726734195845,0.8537234143993766,533.3829294405768,-138.95623163060108)" fill="#1565c0"></use><use xlink:href="#bbburst-shape-3" width="22.790917082610903" opacity="0.5674824934309419" transform="matrix(0.8167893212062748,-0.5769360491106382,0.5769360491106382,0.8167893212062748,-31.354632465717856,116.29504452146256)" fill="#1565c0"></use><use xlink:href="#bbburst-shape-2" width="21.844839028432055" opacity="0.678089138809669" transform="matrix(0.954648815877113,0.29773417396131385,-0.29773417396131385,0.954648815877113,653.4329233932223,9.785062567401326)" fill="#1976d2"></use><use xlink:href="#bbburst-shape-13" width="17.45680915848766" opacity="0.8765954374277831" transform="matrix(0.7977749315096109,0.6029553537823805,-0.6029553537823805,0.7977749315096109,596.5585782190423,116.43789395470162)" fill="none" stroke="#1976d2"></use><use xlink:href="#bbburst-shape-3" width="10.77614699449073" opacity="0.9927046648233119" transform="matrix(0.8275653139698305,-0.5613694426258129,0.5613694426258129,0.8275653139698305,174.23633030273197,71.82672057840563)" fill="#1976d2"></use><use xlink:href="#bbburst-shape-3" width="31.534426765452245" opacity="0.18333661183389138" transform="matrix(0.9742433427834067,0.22549924399477117,-0.22549924399477117,0.9742433427834067,835.6255126928892,-62.586167319258436)" fill="#1565c0"></use><use xlink:href="#bbburst-shape-4" width="25.770706005998154" opacity="0.5985185600242001" transform="matrix(0.7953985170247625,0.6060867917343262,-0.6060867917343262,0.7953985170247625,701.3758022837784,-92.83726804842078)" fill="#1976d2"></use><use xlink:href="#bbburst-shape-8" width="19.46327740230522" opacity="0.7349430825741301" transform="matrix(0.8588417820064292,0.5122409525604342,-0.5122409525604342,0.8588417820064292,709.8640820466695,88.68008333960876)" fill="none" stroke="#1565c0"></use><use xlink:href="#bbburst-shape-5" width="16.729832635030142" opacity="0.8540514020681249" transform="matrix(0.9939870803214961,0.10949741619758732,-0.10949741619758732,0.9939870803214961,442.367868200153,66.80438056679134)" fill="#1565c0"></use><use xlink:href="#bbburst-shape-4" width="31.64637902774881" opacity="0.29771888174190886" transform="matrix(0.9688562740575525,-0.2476237472846998,0.2476237472846998,0.9688562740575525,19.84032874383901,-154.56463411307044)" fill="#1976d2"></use><use xlink:href="#bbburst-shape-5" width="14.842520253392397" opacity="0.9319950028014856" transform="matrix(0.9982861000979545,0.058522323528861615,-0.058522323528861615,0.9982861000979545,385.3984058568772,0.3763683794411463)" fill="#1976d2"></use><use xlink:href="#bbburst-shape-4" width="45.28815323573582" opacity="0.15233981780637817" transform="matrix(0.9224292288218776,-0.3861661790150403,0.3861661790150403,0.9224292288218776,492.12072704007994,311.7804484466051)" fill="#1976d2"></use><use xlink:href="#bbburst-shape-1" width="25.293898340473824" opacity="0.508195970903897" transform="matrix(0.9963599362694491,0.08524598170670215,-0.08524598170670215,0.9963599362694491,207.88553161627573,-57.46914740282983)" fill="#1976d2"></use><use xlink:href="#bbburst-shape-10" width="14.800054207013828" opacity="0.9339728690616975" transform="matrix(0.995296422847854,0.0968763679452615,-0.0968763679452615,0.995296422847854,431.8819248825934,30.8725991803301)" fill="none" stroke="#1976d2"></use><use xlink:href="#bbburst-shape-11" width="26.4146312422287" opacity="0.5217762871310534" transform="matrix(0.9345773204497576,-0.35576007659791037,0.35576007659791037,0.9345773204497576,327.70504984038126,229.31945374483087)" fill="none" stroke="#1976d2"></use><use xlink:href="#bbburst-shape-8" width="40.51941342679924" opacity="0.34928260721500226" transform="matrix(0.8248502378739592,-0.5653512935151674,0.5653512935151674,0.8248502378739592,358.56425002999924,294.0621196924499)" fill="none" stroke="#1976d2"></use><use xlink:href="#bbburst-shape-8" width="27.45269320586255" opacity="0.18117274869748945" transform="matrix(0.7724112198864648,-0.6351227498629721,0.6351227498629721,0.7724112198864648,199.0523989388575,-263.1702867216551)" fill="none" stroke="#1565c0"></use><use xlink:href="#bbburst-shape-2" width="13.843680975757861" opacity="0.9214996353248538" transform="matrix(0.7481553328739967,0.6635236227084904,-0.6635236227084904,0.7481553328739967,641.9591425774408,65.91483433904284)" fill="#1565c0"></use><use xlink:href="#bbburst-shape-9" width="30.05415251254633" opacity="0.3581837070529259" transform="matrix(0.9101001019294467,-0.4143884704815165,0.4143884704815165,0.9101001019294467,508.4410858328599,19.721307575008268)" fill="none" stroke="#1565c0"></use><use xlink:href="#bbburst-shape-4" width="25.50470331532816" opacity="0.6827646765656026" transform="matrix(0.9693295102482447,0.24576472603263913,-0.24576472603263913,0.9693295102482447,494.0963119376043,-133.36609368517009)" fill="#1976d2"></use><use xlink:href="#bbburst-shape-8" width="24.344204316763946" opacity="0.5453266030051086" transform="matrix(0.8228013663946315,-0.5683290520984541,0.5683290520984541,0.8228013663946315,365.43943604879524,50.59197452672646)" fill="none" stroke="#1976d2"></use></svg>